<mxfile host="app.diagrams.net" modified="2021-10-02T08:57:42.463Z" agent="5.0 (Windows NT 10.0; Win64; x64) AppleWebKit/537.36 (KHTML, like Gecko) Chrome/87.0.4280.88 Safari/537.36" etag="6yliwe9eHfR_xsgZTgY_" version="15.4.1" type="github">
  <diagram id="o_u66sS629HOIzEhSAqR" name="Page-1">
    <mxGraphModel dx="1185" dy="662" grid="1" gridSize="10" guides="1" tooltips="1" connect="1" arrows="1" fold="1" page="1" pageScale="1" pageWidth="827" pageHeight="1169" math="0" shadow="0">
      <root>
        <mxCell id="0" />
        <mxCell id="1" parent="0" />
        <mxCell id="cuORQ5B1R6Ljx33xVvXr-1" style="edgeStyle=orthogonalEdgeStyle;rounded=0;orthogonalLoop=1;jettySize=auto;html=1;exitX=1;exitY=0.75;exitDx=0;exitDy=0;entryX=0;entryY=0.75;entryDx=0;entryDy=0;shape=flexArrow;" edge="1" parent="1" source="cuORQ5B1R6Ljx33xVvXr-2" target="cuORQ5B1R6Ljx33xVvXr-11">
          <mxGeometry relative="1" as="geometry" />
        </mxCell>
        <mxCell id="cuORQ5B1R6Ljx33xVvXr-2" value="set_dielectric" style="rounded=0;whiteSpace=wrap;html=1;" vertex="1" parent="1">
          <mxGeometry x="240" y="170" width="110" height="50" as="geometry" />
        </mxCell>
        <mxCell id="cuORQ5B1R6Ljx33xVvXr-3" style="edgeStyle=orthogonalEdgeStyle;rounded=0;orthogonalLoop=1;jettySize=auto;html=1;entryX=0;entryY=0.5;entryDx=0;entryDy=0;shape=flexArrow;strokeWidth=1;" edge="1" parent="1" source="cuORQ5B1R6Ljx33xVvXr-6" target="cuORQ5B1R6Ljx33xVvXr-2">
          <mxGeometry relative="1" as="geometry" />
        </mxCell>
        <mxCell id="cuORQ5B1R6Ljx33xVvXr-4" style="edgeStyle=orthogonalEdgeStyle;rounded=0;orthogonalLoop=1;jettySize=auto;html=1;entryX=0;entryY=0.5;entryDx=0;entryDy=0;shape=flexArrow;" edge="1" parent="1" source="cuORQ5B1R6Ljx33xVvXr-6" target="cuORQ5B1R6Ljx33xVvXr-8">
          <mxGeometry relative="1" as="geometry" />
        </mxCell>
        <mxCell id="cuORQ5B1R6Ljx33xVvXr-5" style="edgeStyle=orthogonalEdgeStyle;rounded=0;orthogonalLoop=1;jettySize=auto;html=1;entryX=0;entryY=0.5;entryDx=0;entryDy=0;shape=flexArrow;" edge="1" parent="1" source="cuORQ5B1R6Ljx33xVvXr-6" target="cuORQ5B1R6Ljx33xVvXr-14">
          <mxGeometry relative="1" as="geometry" />
        </mxCell>
        <mxCell id="cuORQ5B1R6Ljx33xVvXr-6" value="init" style="rounded=0;whiteSpace=wrap;html=1;" vertex="1" parent="1">
          <mxGeometry x="140" y="80" width="110" height="50" as="geometry" />
        </mxCell>
        <mxCell id="cuORQ5B1R6Ljx33xVvXr-7" value="int dielectric_set[]" style="text;html=1;strokeColor=none;fillColor=none;align=center;verticalAlign=middle;whiteSpace=wrap;rounded=0;" vertex="1" parent="1">
          <mxGeometry x="205" y="140" width="100" height="30" as="geometry" />
        </mxCell>
        <mxCell id="cuORQ5B1R6Ljx33xVvXr-8" value="set_GENE" style="rounded=0;whiteSpace=wrap;html=1;" vertex="1" parent="1">
          <mxGeometry x="240" y="250" width="110" height="50" as="geometry" />
        </mxCell>
        <mxCell id="cuORQ5B1R6Ljx33xVvXr-9" value="&amp;nbsp;struct GENE curr_generation" style="text;html=1;strokeColor=none;fillColor=none;align=center;verticalAlign=middle;whiteSpace=wrap;rounded=0;" vertex="1" parent="1">
          <mxGeometry x="200" y="220" width="170" height="30" as="geometry" />
        </mxCell>
        <mxCell id="cuORQ5B1R6Ljx33xVvXr-10" style="edgeStyle=orthogonalEdgeStyle;rounded=0;orthogonalLoop=1;jettySize=auto;html=1;exitX=0;exitY=0.25;exitDx=0;exitDy=0;entryX=1;entryY=0.25;entryDx=0;entryDy=0;" edge="1" parent="1" source="cuORQ5B1R6Ljx33xVvXr-11" target="cuORQ5B1R6Ljx33xVvXr-2">
          <mxGeometry relative="1" as="geometry" />
        </mxCell>
        <mxCell id="cuORQ5B1R6Ljx33xVvXr-11" value="get_rand_num" style="rounded=0;whiteSpace=wrap;html=1;" vertex="1" parent="1">
          <mxGeometry x="500" y="170" width="110" height="50" as="geometry" />
        </mxCell>
        <mxCell id="cuORQ5B1R6Ljx33xVvXr-12" value="random number % max" style="text;html=1;strokeColor=none;fillColor=none;align=center;verticalAlign=middle;whiteSpace=wrap;rounded=0;" vertex="1" parent="1">
          <mxGeometry x="360" y="150" width="130" height="30" as="geometry" />
        </mxCell>
        <mxCell id="cuORQ5B1R6Ljx33xVvXr-13" value="max" style="text;html=1;strokeColor=none;fillColor=none;align=center;verticalAlign=middle;whiteSpace=wrap;rounded=0;" vertex="1" parent="1">
          <mxGeometry x="360" y="200" width="130" height="30" as="geometry" />
        </mxCell>
        <mxCell id="cuORQ5B1R6Ljx33xVvXr-14" value="set_target_value" style="rounded=0;whiteSpace=wrap;html=1;" vertex="1" parent="1">
          <mxGeometry x="240" y="330" width="110" height="50" as="geometry" />
        </mxCell>
        <mxCell id="cuORQ5B1R6Ljx33xVvXr-15" value="" style="shape=flexArrow;endArrow=classic;html=1;rounded=0;strokeWidth=1;edgeStyle=orthogonalEdgeStyle;width=13.714285714285714;endSize=3.8628571428571425;" edge="1" parent="1">
          <mxGeometry width="50" height="50" relative="1" as="geometry">
            <mxPoint x="620" y="34.710000000000036" as="sourcePoint" />
            <mxPoint x="650" y="34.710000000000036" as="targetPoint" />
            <Array as="points">
              <mxPoint x="630" y="35" />
              <mxPoint x="630" y="35" />
            </Array>
          </mxGeometry>
        </mxCell>
        <mxCell id="cuORQ5B1R6Ljx33xVvXr-16" value=": call" style="text;html=1;strokeColor=none;fillColor=none;align=center;verticalAlign=middle;whiteSpace=wrap;rounded=0;" vertex="1" parent="1">
          <mxGeometry x="640" y="20" width="60" height="30" as="geometry" />
        </mxCell>
        <mxCell id="cuORQ5B1R6Ljx33xVvXr-17" value="" style="endArrow=classic;html=1;rounded=0;strokeWidth=1;edgeStyle=orthogonalEdgeStyle;" edge="1" parent="1">
          <mxGeometry width="50" height="50" relative="1" as="geometry">
            <mxPoint x="710" y="40" as="sourcePoint" />
            <mxPoint x="740" y="40" as="targetPoint" />
          </mxGeometry>
        </mxCell>
        <mxCell id="cuORQ5B1R6Ljx33xVvXr-18" value=": ret" style="text;html=1;strokeColor=none;fillColor=none;align=center;verticalAlign=middle;whiteSpace=wrap;rounded=0;" vertex="1" parent="1">
          <mxGeometry x="730" y="20" width="60" height="30" as="geometry" />
        </mxCell>
        <mxCell id="cuORQ5B1R6Ljx33xVvXr-19" value="int &amp;amp;target_value" style="text;html=1;strokeColor=none;fillColor=none;align=center;verticalAlign=middle;whiteSpace=wrap;rounded=0;" vertex="1" parent="1">
          <mxGeometry x="200" y="300" width="110" height="30" as="geometry" />
        </mxCell>
        <mxCell id="cuORQ5B1R6Ljx33xVvXr-20" value="struct GENE" style="swimlane;" vertex="1" parent="1">
          <mxGeometry x="670" y="90" width="150" height="90" as="geometry" />
        </mxCell>
        <mxCell id="cuORQ5B1R6Ljx33xVvXr-22" value="int n[3] // 유전체" style="text;html=1;align=center;verticalAlign=middle;resizable=0;points=[];autosize=1;strokeColor=none;fillColor=none;" vertex="1" parent="cuORQ5B1R6Ljx33xVvXr-20">
          <mxGeometry y="30" width="100" height="20" as="geometry" />
        </mxCell>
        <mxCell id="cuORQ5B1R6Ljx33xVvXr-23" value="int fit // 적합도" style="text;html=1;align=center;verticalAlign=middle;resizable=0;points=[];autosize=1;strokeColor=none;fillColor=none;" vertex="1" parent="cuORQ5B1R6Ljx33xVvXr-20">
          <mxGeometry y="50" width="90" height="20" as="geometry" />
        </mxCell>
      </root>
    </mxGraphModel>
  </diagram>
</mxfile>
